<mxfile host="Electron" modified="2023-12-24T14:04:05.592Z" agent="Mozilla/5.0 (Windows NT 10.0; Win64; x64) AppleWebKit/537.36 (KHTML, like Gecko) draw.io/22.1.2 Chrome/114.0.5735.289 Electron/25.9.4 Safari/537.36" etag="Gl4iH5Xz3-GWmY6JWSbJ" version="22.1.2" type="device">
  <diagram name="Page-1" id="p3Mqc_cglge0Q375Exqq">
    <mxGraphModel dx="591" dy="867" grid="1" gridSize="10" guides="1" tooltips="1" connect="1" arrows="1" fold="1" page="1" pageScale="1" pageWidth="827" pageHeight="583" math="0" shadow="0">
      <root>
        <mxCell id="0" />
        <mxCell id="1" parent="0" />
        <mxCell id="mLAwz7DiSChVZHZjPMNw-1" value="" style="rounded=1;whiteSpace=wrap;html=1;absoluteArcSize=1;arcSize=14;strokeWidth=1;" parent="1" vertex="1">
          <mxGeometry x="1270" y="70" width="170" height="210" as="geometry" />
        </mxCell>
        <mxCell id="mLAwz7DiSChVZHZjPMNw-2" value="" style="ellipse;whiteSpace=wrap;html=1;aspect=fixed;fillColor=#000000;fontColor=#ffffff;strokeColor=none;" parent="1" vertex="1">
          <mxGeometry x="930" y="135" width="20" height="20" as="geometry" />
        </mxCell>
        <mxCell id="mLAwz7DiSChVZHZjPMNw-3" value="" style="endArrow=open;html=1;rounded=0;exitX=1;exitY=0.5;exitDx=0;exitDy=0;endFill=0;entryX=0;entryY=0.5;entryDx=0;entryDy=0;" parent="1" source="mLAwz7DiSChVZHZjPMNw-2" target="mLAwz7DiSChVZHZjPMNw-5" edge="1">
          <mxGeometry width="50" height="50" relative="1" as="geometry">
            <mxPoint x="980" y="170" as="sourcePoint" />
            <mxPoint x="970" y="145" as="targetPoint" />
          </mxGeometry>
        </mxCell>
        <mxCell id="mLAwz7DiSChVZHZjPMNw-4" style="edgeStyle=orthogonalEdgeStyle;rounded=0;orthogonalLoop=1;jettySize=auto;html=1;exitX=0.25;exitY=0;exitDx=0;exitDy=0;entryX=0.75;entryY=0;entryDx=0;entryDy=0;" parent="1" source="mLAwz7DiSChVZHZjPMNw-5" target="mLAwz7DiSChVZHZjPMNw-5" edge="1">
          <mxGeometry relative="1" as="geometry">
            <Array as="points">
              <mxPoint x="1070" y="95" />
              <mxPoint x="1130" y="95" />
            </Array>
          </mxGeometry>
        </mxCell>
        <mxCell id="mLAwz7DiSChVZHZjPMNw-5" value="Pris" style="rounded=1;whiteSpace=wrap;html=1;" parent="1" vertex="1">
          <mxGeometry x="1040" y="115" width="120" height="60" as="geometry" />
        </mxCell>
        <mxCell id="mLAwz7DiSChVZHZjPMNw-6" value="Enregistrer&lt;br&gt;rendez-vous" style="text;html=1;align=center;verticalAlign=middle;resizable=0;points=[];autosize=1;strokeColor=none;fillColor=none;" parent="1" vertex="1">
          <mxGeometry x="950" y="100" width="90" height="40" as="geometry" />
        </mxCell>
        <mxCell id="mLAwz7DiSChVZHZjPMNw-7" value="Facturé" style="rounded=1;whiteSpace=wrap;html=1;" parent="1" vertex="1">
          <mxGeometry x="1295" y="340" width="120" height="60" as="geometry" />
        </mxCell>
        <mxCell id="mLAwz7DiSChVZHZjPMNw-8" value="Effectué" style="rounded=1;whiteSpace=wrap;html=1;" parent="1" vertex="1">
          <mxGeometry x="1290" y="115" width="120" height="60" as="geometry" />
        </mxCell>
        <mxCell id="mLAwz7DiSChVZHZjPMNw-9" value="" style="endArrow=open;html=1;rounded=0;exitX=1;exitY=0.5;exitDx=0;exitDy=0;endFill=0;entryX=0;entryY=0.5;entryDx=0;entryDy=0;" parent="1" source="mLAwz7DiSChVZHZjPMNw-5" target="mLAwz7DiSChVZHZjPMNw-8" edge="1">
          <mxGeometry width="50" height="50" relative="1" as="geometry">
            <mxPoint x="870" y="155" as="sourcePoint" />
            <mxPoint x="1200" y="145" as="targetPoint" />
          </mxGeometry>
        </mxCell>
        <mxCell id="mLAwz7DiSChVZHZjPMNw-10" value="" style="endArrow=open;html=1;rounded=0;exitX=0.5;exitY=1;exitDx=0;exitDy=0;endFill=0;entryX=0.5;entryY=0;entryDx=0;entryDy=0;" parent="1" source="mLAwz7DiSChVZHZjPMNw-5" target="mLAwz7DiSChVZHZjPMNw-23" edge="1">
          <mxGeometry width="50" height="50" relative="1" as="geometry">
            <mxPoint x="1170" y="155" as="sourcePoint" />
            <mxPoint x="1100" y="270" as="targetPoint" />
          </mxGeometry>
        </mxCell>
        <mxCell id="mLAwz7DiSChVZHZjPMNw-11" value="" style="endArrow=open;html=1;rounded=0;exitX=0.5;exitY=1;exitDx=0;exitDy=0;endFill=0;entryX=0.5;entryY=0;entryDx=0;entryDy=0;" parent="1" source="mLAwz7DiSChVZHZjPMNw-1" target="mLAwz7DiSChVZHZjPMNw-7" edge="1">
          <mxGeometry width="50" height="50" relative="1" as="geometry">
            <mxPoint x="1520" y="206" as="sourcePoint" />
            <mxPoint x="1570" y="190" as="targetPoint" />
          </mxGeometry>
        </mxCell>
        <mxCell id="mLAwz7DiSChVZHZjPMNw-12" value="Indiquer &lt;br&gt;rendez-vous &lt;br&gt;effectué" style="text;html=1;align=center;verticalAlign=middle;resizable=0;points=[];autosize=1;strokeColor=none;fillColor=none;" parent="1" vertex="1">
          <mxGeometry x="1175" y="80" width="90" height="60" as="geometry" />
        </mxCell>
        <mxCell id="mLAwz7DiSChVZHZjPMNw-13" value="Fournir&lt;br&gt;attestation de soin" style="text;html=1;align=center;verticalAlign=middle;resizable=0;points=[];autosize=1;strokeColor=none;fillColor=none;" parent="1" vertex="1">
          <mxGeometry x="1365" y="288" width="120" height="40" as="geometry" />
        </mxCell>
        <mxCell id="mLAwz7DiSChVZHZjPMNw-14" value="Supprimer&lt;br&gt;rendez-vous" style="text;html=1;align=center;verticalAlign=middle;resizable=0;points=[];autosize=1;strokeColor=none;fillColor=none;" parent="1" vertex="1">
          <mxGeometry x="995" y="267" width="90" height="40" as="geometry" />
        </mxCell>
        <mxCell id="mLAwz7DiSChVZHZjPMNw-15" value="Payé" style="rounded=1;whiteSpace=wrap;html=1;" parent="1" vertex="1">
          <mxGeometry x="1295" y="470" width="120" height="60" as="geometry" />
        </mxCell>
        <mxCell id="mLAwz7DiSChVZHZjPMNw-16" value="Annulé" style="rounded=1;whiteSpace=wrap;html=1;" parent="1" vertex="1">
          <mxGeometry x="1290" y="202" width="120" height="60" as="geometry" />
        </mxCell>
        <mxCell id="mLAwz7DiSChVZHZjPMNw-17" value="" style="endArrow=open;html=1;rounded=0;exitX=1;exitY=1;exitDx=0;exitDy=0;endFill=0;entryX=0;entryY=0.5;entryDx=0;entryDy=0;" parent="1" source="mLAwz7DiSChVZHZjPMNw-5" target="mLAwz7DiSChVZHZjPMNw-16" edge="1">
          <mxGeometry width="50" height="50" relative="1" as="geometry">
            <mxPoint x="1050" y="185" as="sourcePoint" />
            <mxPoint x="1040" y="260" as="targetPoint" />
          </mxGeometry>
        </mxCell>
        <mxCell id="mLAwz7DiSChVZHZjPMNw-18" value="Annuler&lt;br&gt;rendez-vous" style="text;html=1;align=center;verticalAlign=middle;resizable=0;points=[];autosize=1;strokeColor=none;fillColor=none;" parent="1" vertex="1">
          <mxGeometry x="1151" y="212" width="90" height="40" as="geometry" />
        </mxCell>
        <mxCell id="mLAwz7DiSChVZHZjPMNw-19" value="Modifier&lt;br&gt;rendez-vous" style="text;html=1;align=center;verticalAlign=middle;resizable=0;points=[];autosize=1;strokeColor=none;fillColor=none;" parent="1" vertex="1">
          <mxGeometry x="1055" y="40" width="90" height="40" as="geometry" />
        </mxCell>
        <mxCell id="mLAwz7DiSChVZHZjPMNw-21" value="Signaler&lt;br&gt;paiement&lt;br&gt;effectué" style="text;html=1;align=center;verticalAlign=middle;resizable=0;points=[];autosize=1;strokeColor=none;fillColor=none;" parent="1" vertex="1">
          <mxGeometry x="1390" y="404" width="70" height="60" as="geometry" />
        </mxCell>
        <mxCell id="mLAwz7DiSChVZHZjPMNw-23" value="" style="ellipse;html=1;shape=endState;fillColor=#000000;strokeColor=default;" parent="1" vertex="1">
          <mxGeometry x="1085" y="484" width="30" height="30" as="geometry" />
        </mxCell>
        <mxCell id="mLAwz7DiSChVZHZjPMNw-24" value="" style="endArrow=open;html=1;rounded=0;endFill=0;exitX=0;exitY=0.5;exitDx=0;exitDy=0;entryX=1;entryY=0.5;entryDx=0;entryDy=0;" parent="1" source="mLAwz7DiSChVZHZjPMNw-15" target="mLAwz7DiSChVZHZjPMNw-23" edge="1">
          <mxGeometry width="50" height="50" relative="1" as="geometry">
            <mxPoint x="1220" y="540" as="sourcePoint" />
            <mxPoint x="1180" y="560" as="targetPoint" />
          </mxGeometry>
        </mxCell>
        <mxCell id="mLAwz7DiSChVZHZjPMNw-27" value="" style="endArrow=open;html=1;rounded=0;exitX=0.5;exitY=1;exitDx=0;exitDy=0;endFill=0;entryX=0.5;entryY=0;entryDx=0;entryDy=0;" parent="1" source="mLAwz7DiSChVZHZjPMNw-7" target="mLAwz7DiSChVZHZjPMNw-15" edge="1">
          <mxGeometry width="50" height="50" relative="1" as="geometry">
            <mxPoint x="1370" y="390" as="sourcePoint" />
            <mxPoint x="1110" y="500" as="targetPoint" />
          </mxGeometry>
        </mxCell>
        <mxCell id="mLAwz7DiSChVZHZjPMNw-28" value="à facturer" style="rounded=1;whiteSpace=wrap;html=1;" parent="1" vertex="1">
          <mxGeometry x="1370" y="70" width="70" height="28" as="geometry" />
        </mxCell>
      </root>
    </mxGraphModel>
  </diagram>
</mxfile>
